<svg width="226" height="150" viewBox="0 0 226 150" fill="none" xmlns="http://www.w3.org/2000/svg">
<path d="M89.035 123.137H63.366C63.366 123.137 37.5423 121.899 38.0062 101.488C38.4701 81.0764 57.9476 77.3638 57.9476 77.3638C57.9476 77.3638 49.8982 34.6902 84.6991 28.3451C119.5 22 127.068 47.6742 127.068 47.6742C127.068 47.6742 151.669 31.9017 168.516 49.6844C185.363 67.4672 168.665 84.7861 168.665 84.7861C168.665 84.7861 188 83.5491 188 102.725C188 121.901 168.516 123.137 168.516 123.137H123.054C123.054 123.137 116.25 123.485 112.385 119.58C108.519 115.675 108.983 107.828 108.983 107.828V64.0668M108.983 64.0668L89.035 83.7051M108.983 64.0668L129.394 83.7051" stroke="#929292" stroke-width="7.5" stroke-linecap="round" stroke-linejoin="round"/>
</svg>
