<svg width="226" height="150" viewBox="0 0 226 150" fill="none" xmlns="http://www.w3.org/2000/svg">
<path d="M137.81 47.076C137.81 54.1634 132.064 59.9087 124.977 59.9087C117.89 59.9087 112.144 54.1634 112.144 47.076C112.144 39.9887 117.89 34.2433 124.977 34.2433C132.064 34.2433 137.81 39.9887 137.81 47.076Z" fill="#929292"/>
<path fill-rule="evenodd" clip-rule="evenodd" d="M137.81 47.076C137.81 54.1634 132.064 59.9087 124.977 59.9087C117.89 59.9087 112.144 54.1634 112.144 47.076C112.144 39.9887 117.89 34.2433 124.977 34.2433C132.064 34.2433 137.81 39.9887 137.81 47.076Z" fill="#929292"/>
<path fill-rule="evenodd" clip-rule="evenodd" d="M38 27C38 18.7157 44.7157 12 53 12H173C181.284 12 188 18.7157 188 27V125.536V125.536C188 132.781 182.127 138.654 174.882 138.654H51.1179C43.8731 138.654 38 132.781 38 125.536V125.536V27ZM124.977 101.848L98.6273 73.7671C92.0856 66.7956 80.779 67.6407 75.3463 75.5071L46 118V30C46 24.4772 50.4772 20 56 20H170C175.523 20 180 24.4772 180 30V118L160.58 93.3939C155.531 86.996 146.297 85.8008 139.785 90.7022L124.977 101.848Z" fill="#929292"/>
</svg>
